<?xml version="1.0" encoding="utf-8"?>
<!-- Generator: Adobe Illustrator 22.0.1, SVG Export Plug-In . SVG Version: 6.00 Build 0)  -->
<svg version="1.1" id="레이어_1" xmlns="http://www.w3.org/2000/svg" xmlns:xlink="http://www.w3.org/1999/xlink" x="0px"
	 y="0px" viewBox="0 0 48 48" style="enable-background:new 0 0 48 48;" xml:space="preserve">
<style type="text/css">
	.st0{fill:none;stroke:#000000;stroke-width:6;stroke-miterlimit:10;}
</style>
<g>
	<path d="M3.6,17h2.1v11.5H3.6V17z"/>
	<path d="M8.4,17h2.4l4,7c0.1,0.2,0.3,0.5,0.4,0.8c0.1,0.3,0.3,0.7,0.3,1V17h1.9v11.5H15l-4-7c-0.2-0.3-0.3-0.5-0.4-0.8
		c-0.1-0.3-0.2-0.6-0.3-0.9v8.8H8.4V17z"/>
	<path d="M24.5,16.8c0.8,0,1.6,0.1,2.2,0.3c0.6,0.2,1.2,0.5,1.8,1l-1.1,1.6C27,19.3,26.5,19,26,18.9c-0.5-0.1-1-0.2-1.5-0.2
		c-0.3,0-0.7,0.1-1,0.2c-0.3,0.1-0.6,0.3-0.9,0.6c-0.3,0.3-0.5,0.6-0.6,1.1c-0.2,0.5-0.2,1-0.2,1.8v1.2c0,0.6,0.1,1.1,0.2,1.6
		c0.2,0.4,0.4,0.8,0.6,1s0.5,0.5,0.9,0.6c0.3,0.1,0.7,0.2,1.1,0.2c0.5,0,1.1-0.1,1.7-0.2c0.6-0.2,1.1-0.5,1.6-1l1.1,1.6
		c-0.3,0.3-0.7,0.6-1.1,0.8c-0.4,0.2-0.8,0.4-1.1,0.5s-0.8,0.2-1.1,0.2c-0.4,0-0.7,0-1,0c-0.6,0-1.2-0.1-1.8-0.3
		c-0.6-0.2-1.1-0.5-1.5-0.9s-0.8-0.9-1-1.5c-0.3-0.6-0.4-1.3-0.4-2.2v-2.1c0-0.9,0.1-1.6,0.4-2.2c0.3-0.6,0.6-1.1,1-1.6
		c0.4-0.4,1-0.7,1.6-0.9C23.2,16.9,23.8,16.8,24.5,16.8z"/>
	<path d="M35.2,23.9h-2.4v4.6h-2.1V17h4.4c0.6,0,1.1,0.1,1.6,0.2c0.5,0.2,0.9,0.4,1.2,0.7c0.3,0.3,0.6,0.6,0.7,1
		c0.2,0.4,0.3,0.8,0.3,1.3v0.6c0,0.6-0.2,1.2-0.5,1.6c-0.3,0.5-0.8,0.9-1.4,1.1c0.4,0.8,0.8,1.7,1.1,2.5c0.4,0.8,0.8,1.7,1.1,2.5
		h-2.3L35.2,23.9z M32.8,18.7v3.5h1.9c0.8,0,1.4-0.1,1.7-0.4s0.5-0.6,0.5-1.1v-0.5c0-0.4-0.2-0.8-0.5-1.1c-0.3-0.3-0.8-0.4-1.5-0.4
		H32.8z"/>
	<path d="M41.9,27.2H44v2.1h-2.1V27.2z"/>
</g>
<rect class="st0" width="48" height="48"/>
<g>
</g>
<g>
</g>
<g>
</g>
<g>
</g>
<g>
</g>
<g>
</g>
<g>
</g>
<g>
</g>
<g>
</g>
<g>
</g>
<g>
</g>
</svg>
